#!OML:ASF F:\VICON\USERDATA\INSTALL\rory7\rory7.ASF
:FULLY-SPECIFIED
:DEGREES
2172
root -6.81876 18.1474 -5.31475 -4.14403 -67.8898 -1.91738
lowerback 15.7195 2.02067 -0.913257
upperback 1.92784 2.39337 -0.603735
thorax -6.76584 1.14852 -0.628845
lowerneck -10.9247 2.54431 -2.49287
upperneck -14.3287 3.44661 2.98526
head -2.87371 1.59785 1.42852
rclavicle 1.02126e-014 3.57812e-015
rhumerus 8.07856 -11.3888 -32.7034
rradius 106.517
rwrist 2.50931
rhand -42.4746 8.25078
rfingers 7.12502
rthumb -15.3523 -21.1593
lclavicle 1.02126e-014 3.57812e-015
lhumerus -5.09921 -27.5912 67.7862
lradius 73.3517
lwrist -0.813106
lhand -28.0808 18.8585
lfingers 7.12502
lthumb -1.46399 48.8332
rfemur -8.13347 14.581 17.5385
rtibia 34.2866
rfoot -19.7173 -8.1967
rtoes -6.78055
lfemur -4.49066 -5.46393 -12.8592
ltibia 43.6062
lfoot -19.7846 11.0332
ltoes -1.47541
2173
root -6.87608 18.158 -5.37 -5.08844 -67.0009 -0.993904
lowerback 15.7085 1.99467 -1.1352
upperback 1.88203 2.31561 -0.69802
thorax -6.81387 1.11603 -0.587961
lowerneck -11.0444 2.44902 -2.56005
upperneck -14.2033 3.3322 2.99833
head -2.80807 1.54839 1.44446
rclavicle 2.57426e-014 1.39149e-014
rhumerus 9.15569 -11.628 -32.2239
rradius 105.721
rwrist 3.021
rhand -42.4335 7.97531
rfingers 7.12502
rthumb -15.3127 -21.4378
lclavicle 2.57426e-014 1.39149e-014
lhumerus -3.58021 -27.4293 66.4103
lradius 74.4704
lwrist -0.655612
lhand -27.8368 18.9621
lfingers 7.12502
lthumb -1.22826 48.9383
rfemur -7.74137 14.0675 17.4517
rtibia 34.2673
rfoot -19.9156 -8.46214
rtoes -6.12626
lfemur -5.33579 -4.72206 -13.2145
ltibia 45.0096
lfoot -20.2504 11.158
ltoes 1.20454
2174
root -6.93674 18.166 -5.42254 -4.52865 -66.1647 -1.68834
lowerback 15.6841 1.92495 -0.769779
upperback 1.79339 2.29757 -0.602462
thorax -6.88462 1.10056 -0.690399
lowerneck -11.1275 2.37889 -2.53505
upperneck -14.0335 3.23623 2.9115
head -2.72937 1.50629 1.41078
rclavicle -2.00027e-014 -7.95139e-015
rhumerus 10.1551 -11.7962 -31.6904
rradius 104.936
rwrist 3.42855
rhand -42.5604 7.93427
rfingers 7.12502
rthumb -15.435 -21.4694
lclavicle -2.00027e-014 -7.95139e-015
lhumerus -2.09491 -27.3001 65.085
lradius 75.5766
lwrist -0.435737
lhand -27.6594 19.37
lfingers 7.12502
lthumb -1.05696 49.3471
rfemur -7.31339 13.4935 18.0659
rtibia 34.1972
rfoot -20.0024 -8.85116
rtoes -6.21476
lfemur -6.16562 -3.81363 -12.8739
ltibia 46.3904
lfoot -20.4914 11.0965
ltoes 1.14773
2175
root -6.99795 18.1809 -5.47653 -3.61963 -65.4597 -2.68817
lowerback 15.5796 1.82117 -0.334426
upperback 1.69908 2.24967 -0.480998
thorax -6.91602 1.06898 -0.795818
lowerneck -11.214 2.38869 -2.40756
upperneck -13.9195 3.23329 2.79594
head -2.66982 1.50428 1.35093
rclavicle -2.46493e-014 -1.27222e-014
rhumerus 11.394 -11.8946 -31.4855
rradius 104.064
rwrist 3.85767
rhand -42.3486 8.42962
rfingers 7.12502
rthumb -15.231 -20.9897
lclavicle -2.46493e-014 -1.27222e-014
lhumerus -0.724749 -26.9444 63.6765
lradius 76.6316
lwrist -0.364485
lhand -27.863 19.4065
lfingers 7.12502
lthumb -1.25364 49.3826
rfemur -6.98719 12.957 18.8363
rtibia 34.1265
rfoot -20.0407 -9.13585
rtoes -6.66853
lfemur -7.00698 -2.83854 -12.4038
ltibia 47.71
lfoot -20.6952 10.6382
ltoes 0.895298
2176
root -7.05409 18.1989 -5.52824 -3.75669 -64.8617 -2.62073
lowerback 15.5999 1.76345 -0.233216
upperback 1.62255 2.18715 -0.55452
thorax -7.0029 1.03513 -0.920414
lowerneck -11.2453 2.39469 -2.4259
upperneck -13.9117 3.26018 2.96248
head -2.66726 1.51709 1.40946
rclavicle -6.75122e-014 9.93923e-015
rhumerus 12.663 -12.0923 -31.4401
rradius 103.154
rwrist 4.45468
rhand -42.0989 8.41218
rfingers 7.12502
rthumb -14.9904 -21.0252
lclavicle -6.75122e-014 9.93923e-015
lhumerus 0.719826 -26.5782 62.0303
lradius 77.588
lwrist -0.378917
lhand -28.2507 19.4834
lfingers 7.12502
lthumb -1.628 49.457
rfemur -6.62622 12.6319 19.1297
rtibia 34.0544
rfoot -20.1815 -9.30888
rtoes -5.86016
lfemur -7.7102 -1.92466 -12.4992
ltibia 48.9338
lfoot -20.9544 9.89319
ltoes 2.93624
2177
root -7.10782 18.2142 -5.57169 -4.61492 -64.4399 -1.8095
lowerback 15.6276 1.89344 -0.49319
upperback 1.57632 2.31034 -0.615201
thorax -7.07438 1.10155 -0.866506
lowerneck -11.2399 2.28909 -2.5636
upperneck -14.0419 3.1394 3.02892
head -2.71366 1.46219 1.4546
rclavicle 5.78712e-014 -6.36111e-015
rhumerus 13.7697 -12.4069 -31.0082
rradius 102.31
rwrist 5.03954
rhand -41.9379 8.06146
rfingers 7.12502
rthumb -14.8353 -21.3875
lclavicle 5.78712e-014 -6.36111e-015
lhumerus 2.3023 -26.2377 60.6456
lradius 78.4363
lwrist -0.392918
lhand -28.3739 19.6114
lfingers 7.12502
lthumb -1.74705 49.584
rfemur -6.27806 12.5099 19.051
rtibia 33.9973
rfoot -20.1903 -9.60082
rtoes -5.39549
lfemur -8.28266 -0.756735 -13.0171
ltibia 50.0457
lfoot -20.9223 9.45764
ltoes 3.03264
2178
root -7.16255 18.2304 -5.60875 -5.07772 -64.0707 -1.40768
lowerback 15.5577 1.97761 -0.505849
upperback 1.56088 2.41705 -0.669631
thorax -7.04953 1.15364 -0.937828
lowerneck -11.2727 2.20237 -2.49195
upperneck -14.1652 3.00646 2.88646
head -2.74129 1.39476 1.39457
rclavicle 3.08116e-014 -3.18055e-015
rhumerus 14.9193 -12.6957 -30.629
rradius 101.494
rwrist 5.53925
rhand -41.7454 8.21649
rfingers 7.12502
rthumb -14.6499 -21.246
lclavicle 3.08116e-014 -3.18055e-015
lhumerus 3.90577 -25.8228 59.1872
lradius 79.2557
lwrist -0.148593
lhand -28.4809 19.829
lfingers 7.12502
lthumb -1.85036 49.8007
rfemur -5.98734 12.3425 19.1446
rtibia 33.9627
rfoot -19.9748 -10.0764
rtoes -6.65241
lfemur -8.81965 0.485816 -13.3792
ltibia 51.0785
lfoot -20.7347 9.09614
ltoes 1.24153
2179
root -7.2192 18.248 -5.64215 -4.77345 -63.5972 -1.88577
lowerback 15.4844 1.94917 -0.12603
upperback 1.55476 2.44988 -0.628908
thorax -7.00082 1.16039 -1.11331
lowerneck -11.4293 2.16649 -2.41044
upperneck -14.0853 2.94763 2.80112
head -2.68204 1.36574 1.35272
rclavicle 2.0276e-014 3.18055e-014
rhumerus 16.1059 -12.9972 -30.3027
rradius 100.633
rwrist 5.95059
rhand -41.6789 8.78211
rfingers 7.12502
rthumb -14.5858 -20.685
lclavicle 2.0276e-014 3.18055e-014
lhumerus 5.49109 -25.3765 57.6138
lradius 80.0259
lwrist 0.301737
lhand -28.6694 20.3485
lfingers 7.12502
lthumb -2.03241 50.3186
rfemur -5.61531 12.1559 19.6424
rtibia 33.9331
rfoot -19.9698 -10.3205
rtoes -6.79938
lfemur -9.28535 1.34731 -13.3323
ltibia 52.0489
lfoot -20.7121 8.1909
ltoes 1.73221
2180
root -7.27318 18.2646 -5.67864 -4.55364 -63.0549 -2.27977
lowerback 15.4818 1.91628 0.182859
upperback 1.51551 2.4633 -0.599527
thorax -7.02932 1.15894 -1.2603
lowerneck -11.5155 2.13293 -2.28741
upperneck -13.9919 2.88962 2.72317
head -2.62944 1.33534 1.3055
rclavicle -7.62836e-015 -1.90833e-014
rhumerus 17.244 -13.3205 -30.0068
rradius 99.7199
rwrist 6.31914
rhand -41.6212 8.95792
rfingers 7.12502
rthumb -14.5302 -20.5132
lclavicle -7.62836e-015 -1.90833e-014
lhumerus 7.05106 -24.8289 56.0778
lradius 80.6616
lwrist 0.546651
lhand -28.8822 20.6602
lfingers 7.12502
lthumb -2.2379 50.6282
rfemur -5.23199 11.947 20.0952
rtibia 33.8956
rfoot -20.0872 -10.4369
rtoes -5.71166
lfemur -9.73189 2.06413 -13.3232
ltibia 52.9441
lfoot -20.5204 7.28168
ltoes 2.24104
2181
root -7.32144 18.2801 -5.71696 -4.9171 -62.5089 -2.00834
lowerback 15.5419 1.91535 0.133142
upperback 1.47697 2.45354 -0.611484
thorax -7.10568 1.15507 -1.24629
lowerneck -11.5961 2.11638 -2.21368
upperneck -13.9349 2.85307 2.58652
head -2.59095 1.31835 1.24796
rclavicle 2.92959e-014 -5.1684e-015
rhumerus 18.4612 -13.678 -29.7094
rradius 98.8041
rwrist 6.78647
rhand -41.4241 8.83471
rfingers 7.12502
rthumb -14.3403 -20.65
lclavicle 2.92959e-014 -5.1684e-015
lhumerus 8.62931 -24.1382 54.581
lradius 81.2154
lwrist 0.622912
lhand -29.187 20.6353
lfingers 7.12502
lthumb -2.53231 50.6
rfemur -4.9059 11.7384 20.2266
rtibia 33.8831
rfoot -20.0835 -10.7818
rtoes -5.78359
lfemur -10.1797 2.85134 -13.6923
ltibia 53.7536
lfoot -19.991 6.9261
ltoes -0.0470598
2182
root -7.36981 18.2976 -5.74963 -5.48181 -61.9803 -1.5183
lowerback 15.5607 1.92962 0.00622782
upperback 1.46236 2.44917 -0.637164
thorax -7.1361 1.15627 -1.20216
lowerneck -11.6499 2.08013 -2.3979
upperneck -13.9439 2.83015 2.64834
head -2.58957 1.31616 1.30024
rclavicle -6.42571e-014 1.66979e-014
rhumerus 19.6848 -14.039 -29.3636
rradius 97.8885
rwrist 7.21466
rhand -41.206 8.76739
rfingers 7.12502
rthumb -14.1301 -20.7321
lclavicle -6.42571e-014 1.66979e-014
lhumerus 10.2512 -23.4805 53.0506
lradius 81.7525
lwrist 0.786098
lhand -29.1949 20.6677
lfingers 7.12502
lthumb -2.5399 50.6323
rfemur -4.56127 11.592 20.2116
rtibia 33.9067
rfoot -20.0424 -11.0149
rtoes -6.45897
lfemur -10.5325 3.46776 -14.2341
ltibia 54.4792
lfoot -19.5483 6.62797
ltoes -3.42202
2183
root -7.41742 18.3156 -5.78084 -5.83443 -61.4628 -1.27168
lowerback 15.5818 1.93499 -0.0269789
upperback 1.4275 2.45295 -0.621036
thorax -7.18728 1.15937 -1.16888
lowerneck -11.6099 2.03526 -2.6333
upperneck -13.987 2.80436 2.75671
head -2.61733 1.31387 1.37616
rclavicle 2.57799e-014 -5.56597e-015
rhumerus 20.9355 -14.331 -28.9788
rradius 96.8736
rwrist 7.55708
rhand -40.9742 8.60694
rfingers 7.12502
rthumb -13.9067 -20.908
lclavicle 2.57799e-014 -5.56597e-015
lhumerus 11.7473 -22.781 51.6952
lradius 82.239
lwrist 0.884641
lhand -28.9417 20.7271
lfingers 7.12502
lthumb -2.2954 50.6945
rfemur -4.21608 11.4712 20.2771
rtibia 33.9095
rfoot -19.9449 -11.0355
rtoes -6.62696
lfemur -10.8432 3.86942 -14.6295
ltibia 55.1642
lfoot -19.3543 6.03107
ltoes -5.27369
